<svg version="1.1" xmlns="http://www.w3.org/2000/svg" xmlns:xlink="http://www.w3.org/1999/xlink" x="0px" y="0px" viewBox="0 0 1000 1000" enable-background="new 0 0 1000 1000" xml:space="preserve">
<metadata> Svg Vector Icons : http://www.onlinewebfonts.com/icon </metadata>
<g><path d="M656.2,54.9C767,101.3,877.5,147.6,990,194.7v756.2C871.1,918,766.6,863.5,653.5,827C552.5,868,450.7,909.3,345,952.2c-108.9-43.3-220.3-87.6-335-133.2V47.8c115.3,44.5,222.8,86,334,129C449.5,135.6,551.8,95.6,656.2,54.9z M376.4,224.6l3.1,656.8L623.9,780V126.2L376.4,224.6z M64.2,777c80.9,32.7,161.6,65.2,249.2,100.6v-652c-81.3-30.5-161.7-60.7-249.2-93.6V777z M936.6,873.4V235.1c-80.2-34.5-160.7-69-249.2-107v652.1C769.9,811,850.1,841,936.6,873.4z"/></g>
</svg>